solid plaque2_ascii
   facet normal -1.000000e+000 -1.224647e-016 0.000000e+000
      outer loop
         vertex 6.245699e-018 -5.100000e-002 -3.129244e-010
         vertex 0.000000e+000 0.000000e+000 -3.129244e-010
         vertex 6.245699e-018 -5.100000e-002 -2.650000e-002
      endloop
   endfacet
   facet normal -1.000000e+000 -1.224647e-016 0.000000e+000
      outer loop
         vertex 6.245699e-018 -5.100000e-002 -2.650000e-002
         vertex 0.000000e+000 0.000000e+000 -3.129244e-010
         vertex 0.000000e+000 0.000000e+000 -2.650000e-002
      endloop
   endfacet
   facet normal 0.000000e+000 -1.000000e+000 0.000000e+000
      outer loop
         vertex 2.660000e-001 -5.100000e-002 -3.129244e-010
         vertex 6.245699e-018 -5.100000e-002 -3.129244e-010
         vertex 2.660000e-001 -5.100000e-002 -2.650000e-002
      endloop
   endfacet
   facet normal 0.000000e+000 -1.000000e+000 0.000000e+000
      outer loop
         vertex 2.660000e-001 -5.100000e-002 -2.650000e-002
         vertex 6.245699e-018 -5.100000e-002 -3.129244e-010
         vertex 6.245699e-018 -5.100000e-002 -2.650000e-002
      endloop
   endfacet
   facet normal 1.000000e+000 -0.000000e+000 0.000000e+000
      outer loop
         vertex 2.660000e-001 0.000000e+000 -3.129244e-010
         vertex 2.660000e-001 -5.100000e-002 -3.129244e-010
         vertex 2.660000e-001 0.000000e+000 -2.650000e-002
      endloop
   endfacet
   facet normal 1.000000e+000 -0.000000e+000 0.000000e+000
      outer loop
         vertex 2.660000e-001 0.000000e+000 -2.650000e-002
         vertex 2.660000e-001 -5.100000e-002 -3.129244e-010
         vertex 2.660000e-001 -5.100000e-002 -2.650000e-002
      endloop
   endfacet
   facet normal 0.000000e+000 1.000000e+000 0.000000e+000
      outer loop
         vertex 0.000000e+000 0.000000e+000 -3.129244e-010
         vertex 2.660000e-001 0.000000e+000 -3.129244e-010
         vertex 0.000000e+000 0.000000e+000 -2.650000e-002
      endloop
   endfacet
   facet normal 0.000000e+000 1.000000e+000 0.000000e+000
      outer loop
         vertex 0.000000e+000 0.000000e+000 -2.650000e-002
         vertex 2.660000e-001 0.000000e+000 -3.129244e-010
         vertex 2.660000e-001 0.000000e+000 -2.650000e-002
      endloop
   endfacet
   facet normal 0.000000e+000 -0.000000e+000 1.000000e+000
      outer loop
         vertex 1.755311e-001 -2.825000e-002 -3.129244e-010
         vertex 1.742500e-001 -2.953109e-002 -3.129244e-010
         vertex 2.660000e-001 -5.100000e-002 -3.129244e-010
      endloop
   endfacet
   facet normal 0.000000e+000 -0.000000e+000 1.000000e+000
      outer loop
         vertex 2.660000e-001 -5.100000e-002 -3.129244e-010
         vertex 1.742500e-001 -2.953109e-002 -3.129244e-010
         vertex 1.725000e-001 -3.000000e-002 -3.129244e-010
      endloop
   endfacet
   facet normal 0.000000e+000 -0.000000e+000 1.000000e+000
      outer loop
         vertex 2.660000e-001 -5.100000e-002 -3.129244e-010
         vertex 1.725000e-001 -3.000000e-002 -3.129244e-010
         vertex 6.245699e-018 -5.100000e-002 -3.129244e-010
      endloop
   endfacet
   facet normal 0.000000e+000 -0.000000e+000 1.000000e+000
      outer loop
         vertex 9.653109e-002 -2.475000e-002 -3.129244e-010
         vertex 9.700000e-002 -2.650000e-002 -3.129244e-010
         vertex 1.690000e-001 -2.650000e-002 -3.129244e-010
      endloop
   endfacet
   facet normal 0.000000e+000 -0.000000e+000 1.000000e+000
      outer loop
         vertex 1.725000e-001 -3.000000e-002 -3.129244e-010
         vertex 1.707500e-001 -2.953109e-002 -3.129244e-010
         vertex 6.245699e-018 -5.100000e-002 -3.129244e-010
      endloop
   endfacet
   facet normal 0.000000e+000 -0.000000e+000 1.000000e+000
      outer loop
         vertex 6.245699e-018 -5.100000e-002 -3.129244e-010
         vertex 1.707500e-001 -2.953109e-002 -3.129244e-010
         vertex 9.350000e-002 -3.000000e-002 -3.129244e-010
      endloop
   endfacet
   facet normal 0.000000e+000 -0.000000e+000 1.000000e+000
      outer loop
         vertex 6.245699e-018 -5.100000e-002 -3.129244e-010
         vertex 9.350000e-002 -3.000000e-002 -3.129244e-010
         vertex 9.175000e-002 -2.953109e-002 -3.129244e-010
      endloop
   endfacet
   facet normal 0.000000e+000 -0.000000e+000 1.000000e+000
      outer loop
         vertex 1.690000e-001 -2.650000e-002 -3.129244e-010
         vertex 9.700000e-002 -2.650000e-002 -3.129244e-010
         vertex 1.694689e-001 -2.825000e-002 -3.129244e-010
      endloop
   endfacet
   facet normal 0.000000e+000 -0.000000e+000 1.000000e+000
      outer loop
         vertex 1.694689e-001 -2.825000e-002 -3.129244e-010
         vertex 9.700000e-002 -2.650000e-002 -3.129244e-010
         vertex 9.653109e-002 -2.825000e-002 -3.129244e-010
      endloop
   endfacet
   facet normal 0.000000e+000 -0.000000e+000 1.000000e+000
      outer loop
         vertex 1.694689e-001 -2.825000e-002 -3.129244e-010
         vertex 9.653109e-002 -2.825000e-002 -3.129244e-010
         vertex 1.707500e-001 -2.953109e-002 -3.129244e-010
      endloop
   endfacet
   facet normal 0.000000e+000 -0.000000e+000 1.000000e+000
      outer loop
         vertex 1.707500e-001 -2.953109e-002 -3.129244e-010
         vertex 9.653109e-002 -2.825000e-002 -3.129244e-010
         vertex 9.525000e-002 -2.953109e-002 -3.129244e-010
      endloop
   endfacet
   facet normal 0.000000e+000 -0.000000e+000 1.000000e+000
      outer loop
         vertex 1.707500e-001 -2.953109e-002 -3.129244e-010
         vertex 9.525000e-002 -2.953109e-002 -3.129244e-010
         vertex 9.350000e-002 -3.000000e-002 -3.129244e-010
      endloop
   endfacet
   facet normal 0.000000e+000 -0.000000e+000 1.000000e+000
      outer loop
         vertex 0.000000e+000 0.000000e+000 -3.129244e-010
         vertex 9.175000e-002 -2.346891e-002 -3.129244e-010
         vertex 9.350000e-002 -2.300000e-002 -3.129244e-010
      endloop
   endfacet
   facet normal 0.000000e+000 -0.000000e+000 1.000000e+000
      outer loop
         vertex 2.660000e-001 0.000000e+000 -3.129244e-010
         vertex 0.000000e+000 0.000000e+000 -3.129244e-010
         vertex 1.725000e-001 -2.300000e-002 -3.129244e-010
      endloop
   endfacet
   facet normal 0.000000e+000 -0.000000e+000 1.000000e+000
      outer loop
         vertex 1.725000e-001 -2.300000e-002 -3.129244e-010
         vertex 0.000000e+000 0.000000e+000 -3.129244e-010
         vertex 1.707500e-001 -2.346891e-002 -3.129244e-010
      endloop
   endfacet
   facet normal 0.000000e+000 -0.000000e+000 1.000000e+000
      outer loop
         vertex 1.725000e-001 -2.300000e-002 -3.129244e-010
         vertex 1.742500e-001 -2.346891e-002 -3.129244e-010
         vertex 2.660000e-001 0.000000e+000 -3.129244e-010
      endloop
   endfacet
   facet normal 0.000000e+000 -0.000000e+000 1.000000e+000
      outer loop
         vertex 2.660000e-001 0.000000e+000 -3.129244e-010
         vertex 1.742500e-001 -2.346891e-002 -3.129244e-010
         vertex 1.755311e-001 -2.475000e-002 -3.129244e-010
      endloop
   endfacet
   facet normal 0.000000e+000 -0.000000e+000 1.000000e+000
      outer loop
         vertex 2.660000e-001 0.000000e+000 -3.129244e-010
         vertex 1.755311e-001 -2.475000e-002 -3.129244e-010
         vertex 2.660000e-001 -5.100000e-002 -3.129244e-010
      endloop
   endfacet
   facet normal 0.000000e+000 -0.000000e+000 1.000000e+000
      outer loop
         vertex 2.660000e-001 -5.100000e-002 -3.129244e-010
         vertex 1.755311e-001 -2.475000e-002 -3.129244e-010
         vertex 1.760000e-001 -2.650000e-002 -3.129244e-010
      endloop
   endfacet
   facet normal 0.000000e+000 -0.000000e+000 1.000000e+000
      outer loop
         vertex 2.660000e-001 -5.100000e-002 -3.129244e-010
         vertex 1.760000e-001 -2.650000e-002 -3.129244e-010
         vertex 1.755311e-001 -2.825000e-002 -3.129244e-010
      endloop
   endfacet
   facet normal 0.000000e+000 -0.000000e+000 1.000000e+000
      outer loop
         vertex 9.175000e-002 -2.953109e-002 -3.129244e-010
         vertex 9.046891e-002 -2.825000e-002 -3.129244e-010
         vertex 6.245699e-018 -5.100000e-002 -3.129244e-010
      endloop
   endfacet
   facet normal 0.000000e+000 -0.000000e+000 1.000000e+000
      outer loop
         vertex 6.245699e-018 -5.100000e-002 -3.129244e-010
         vertex 9.046891e-002 -2.825000e-002 -3.129244e-010
         vertex 9.000000e-002 -2.650000e-002 -3.129244e-010
      endloop
   endfacet
   facet normal 0.000000e+000 -0.000000e+000 1.000000e+000
      outer loop
         vertex 6.245699e-018 -5.100000e-002 -3.129244e-010
         vertex 9.000000e-002 -2.650000e-002 -3.129244e-010
         vertex 0.000000e+000 0.000000e+000 -3.129244e-010
      endloop
   endfacet
   facet normal 0.000000e+000 -0.000000e+000 1.000000e+000
      outer loop
         vertex 0.000000e+000 0.000000e+000 -3.129244e-010
         vertex 9.000000e-002 -2.650000e-002 -3.129244e-010
         vertex 9.046891e-002 -2.475000e-002 -3.129244e-010
      endloop
   endfacet
   facet normal 0.000000e+000 -0.000000e+000 1.000000e+000
      outer loop
         vertex 0.000000e+000 0.000000e+000 -3.129244e-010
         vertex 9.046891e-002 -2.475000e-002 -3.129244e-010
         vertex 9.175000e-002 -2.346891e-002 -3.129244e-010
      endloop
   endfacet
   facet normal 0.000000e+000 -0.000000e+000 1.000000e+000
      outer loop
         vertex 1.707500e-001 -2.346891e-002 -3.129244e-010
         vertex 0.000000e+000 0.000000e+000 -3.129244e-010
         vertex 1.694689e-001 -2.475000e-002 -3.129244e-010
      endloop
   endfacet
   facet normal 0.000000e+000 -0.000000e+000 1.000000e+000
      outer loop
         vertex 1.694689e-001 -2.475000e-002 -3.129244e-010
         vertex 0.000000e+000 0.000000e+000 -3.129244e-010
         vertex 9.350000e-002 -2.300000e-002 -3.129244e-010
      endloop
   endfacet
   facet normal 0.000000e+000 -0.000000e+000 1.000000e+000
      outer loop
         vertex 1.694689e-001 -2.475000e-002 -3.129244e-010
         vertex 9.350000e-002 -2.300000e-002 -3.129244e-010
         vertex 1.690000e-001 -2.650000e-002 -3.129244e-010
      endloop
   endfacet
   facet normal 0.000000e+000 -0.000000e+000 1.000000e+000
      outer loop
         vertex 1.690000e-001 -2.650000e-002 -3.129244e-010
         vertex 9.350000e-002 -2.300000e-002 -3.129244e-010
         vertex 9.525000e-002 -2.346891e-002 -3.129244e-010
      endloop
   endfacet
   facet normal 0.000000e+000 -0.000000e+000 1.000000e+000
      outer loop
         vertex 1.690000e-001 -2.650000e-002 -3.129244e-010
         vertex 9.525000e-002 -2.346891e-002 -3.129244e-010
         vertex 9.653109e-002 -2.475000e-002 -3.129244e-010
      endloop
   endfacet
   facet normal 0.000000e+000 0.000000e+000 -1.000000e+000
      outer loop
         vertex 1.742500e-001 -2.953109e-002 -2.650000e-002
         vertex 2.660000e-001 -5.100000e-002 -2.650000e-002
         vertex 1.725000e-001 -3.000000e-002 -2.650000e-002
      endloop
   endfacet
   facet normal 0.000000e+000 0.000000e+000 -1.000000e+000
      outer loop
         vertex 1.725000e-001 -3.000000e-002 -2.650000e-002
         vertex 2.660000e-001 -5.100000e-002 -2.650000e-002
         vertex 6.245699e-018 -5.100000e-002 -2.650000e-002
      endloop
   endfacet
   facet normal 0.000000e+000 0.000000e+000 -1.000000e+000
      outer loop
         vertex 1.725000e-001 -3.000000e-002 -2.650000e-002
         vertex 6.245699e-018 -5.100000e-002 -2.650000e-002
         vertex 1.707500e-001 -2.953109e-002 -2.650000e-002
      endloop
   endfacet
   facet normal 0.000000e+000 0.000000e+000 -1.000000e+000
      outer loop
         vertex 1.755311e-001 -2.475000e-002 -2.650000e-002
         vertex 2.660000e-001 0.000000e+000 -2.650000e-002
         vertex 1.760000e-001 -2.650000e-002 -2.650000e-002
      endloop
   endfacet
   facet normal 0.000000e+000 0.000000e+000 -1.000000e+000
      outer loop
         vertex 1.760000e-001 -2.650000e-002 -2.650000e-002
         vertex 2.660000e-001 0.000000e+000 -2.650000e-002
         vertex 2.660000e-001 -5.100000e-002 -2.650000e-002
      endloop
   endfacet
   facet normal 0.000000e+000 0.000000e+000 -1.000000e+000
      outer loop
         vertex 1.760000e-001 -2.650000e-002 -2.650000e-002
         vertex 2.660000e-001 -5.100000e-002 -2.650000e-002
         vertex 1.755311e-001 -2.825000e-002 -2.650000e-002
      endloop
   endfacet
   facet normal 0.000000e+000 0.000000e+000 -1.000000e+000
      outer loop
         vertex 1.755311e-001 -2.825000e-002 -2.650000e-002
         vertex 2.660000e-001 -5.100000e-002 -2.650000e-002
         vertex 1.742500e-001 -2.953109e-002 -2.650000e-002
      endloop
   endfacet
   facet normal 0.000000e+000 0.000000e+000 -1.000000e+000
      outer loop
         vertex 9.350000e-002 -2.300000e-002 -2.650000e-002
         vertex 9.175000e-002 -2.346891e-002 -2.650000e-002
         vertex 0.000000e+000 0.000000e+000 -2.650000e-002
      endloop
   endfacet
   facet normal 0.000000e+000 0.000000e+000 -1.000000e+000
      outer loop
         vertex 0.000000e+000 0.000000e+000 -2.650000e-002
         vertex 9.175000e-002 -2.346891e-002 -2.650000e-002
         vertex 9.046891e-002 -2.475000e-002 -2.650000e-002
      endloop
   endfacet
   facet normal 0.000000e+000 0.000000e+000 -1.000000e+000
      outer loop
         vertex 0.000000e+000 0.000000e+000 -2.650000e-002
         vertex 9.046891e-002 -2.475000e-002 -2.650000e-002
         vertex 6.245699e-018 -5.100000e-002 -2.650000e-002
      endloop
   endfacet
   facet normal 0.000000e+000 0.000000e+000 -1.000000e+000
      outer loop
         vertex 6.245699e-018 -5.100000e-002 -2.650000e-002
         vertex 9.046891e-002 -2.475000e-002 -2.650000e-002
         vertex 9.000000e-002 -2.650000e-002 -2.650000e-002
      endloop
   endfacet
   facet normal 0.000000e+000 0.000000e+000 -1.000000e+000
      outer loop
         vertex 9.525000e-002 -2.346891e-002 -2.650000e-002
         vertex 1.707500e-001 -2.346891e-002 -2.650000e-002
         vertex 9.653109e-002 -2.475000e-002 -2.650000e-002
      endloop
   endfacet
   facet normal 0.000000e+000 0.000000e+000 -1.000000e+000
      outer loop
         vertex 9.653109e-002 -2.475000e-002 -2.650000e-002
         vertex 1.707500e-001 -2.346891e-002 -2.650000e-002
         vertex 1.694689e-001 -2.475000e-002 -2.650000e-002
      endloop
   endfacet
   facet normal 0.000000e+000 0.000000e+000 -1.000000e+000
      outer loop
         vertex 9.653109e-002 -2.475000e-002 -2.650000e-002
         vertex 1.694689e-001 -2.475000e-002 -2.650000e-002
         vertex 9.700000e-002 -2.650000e-002 -2.650000e-002
      endloop
   endfacet
   facet normal 0.000000e+000 0.000000e+000 -1.000000e+000
      outer loop
         vertex 9.700000e-002 -2.650000e-002 -2.650000e-002
         vertex 1.694689e-001 -2.475000e-002 -2.650000e-002
         vertex 1.690000e-001 -2.650000e-002 -2.650000e-002
      endloop
   endfacet
   facet normal 0.000000e+000 0.000000e+000 -1.000000e+000
      outer loop
         vertex 9.700000e-002 -2.650000e-002 -2.650000e-002
         vertex 1.690000e-001 -2.650000e-002 -2.650000e-002
         vertex 9.653109e-002 -2.825000e-002 -2.650000e-002
      endloop
   endfacet
   facet normal 0.000000e+000 0.000000e+000 -1.000000e+000
      outer loop
         vertex 1.755311e-001 -2.475000e-002 -2.650000e-002
         vertex 1.742500e-001 -2.346891e-002 -2.650000e-002
         vertex 2.660000e-001 0.000000e+000 -2.650000e-002
      endloop
   endfacet
   facet normal 0.000000e+000 0.000000e+000 -1.000000e+000
      outer loop
         vertex 2.660000e-001 0.000000e+000 -2.650000e-002
         vertex 1.742500e-001 -2.346891e-002 -2.650000e-002
         vertex 1.725000e-001 -2.300000e-002 -2.650000e-002
      endloop
   endfacet
   facet normal 0.000000e+000 0.000000e+000 -1.000000e+000
      outer loop
         vertex 2.660000e-001 0.000000e+000 -2.650000e-002
         vertex 1.725000e-001 -2.300000e-002 -2.650000e-002
         vertex 0.000000e+000 0.000000e+000 -2.650000e-002
      endloop
   endfacet
   facet normal 0.000000e+000 0.000000e+000 -1.000000e+000
      outer loop
         vertex 0.000000e+000 0.000000e+000 -2.650000e-002
         vertex 1.725000e-001 -2.300000e-002 -2.650000e-002
         vertex 1.707500e-001 -2.346891e-002 -2.650000e-002
      endloop
   endfacet
   facet normal 0.000000e+000 0.000000e+000 -1.000000e+000
      outer loop
         vertex 0.000000e+000 0.000000e+000 -2.650000e-002
         vertex 1.707500e-001 -2.346891e-002 -2.650000e-002
         vertex 9.350000e-002 -2.300000e-002 -2.650000e-002
      endloop
   endfacet
   facet normal 0.000000e+000 0.000000e+000 -1.000000e+000
      outer loop
         vertex 9.350000e-002 -2.300000e-002 -2.650000e-002
         vertex 1.707500e-001 -2.346891e-002 -2.650000e-002
         vertex 9.525000e-002 -2.346891e-002 -2.650000e-002
      endloop
   endfacet
   facet normal 0.000000e+000 0.000000e+000 -1.000000e+000
      outer loop
         vertex 9.000000e-002 -2.650000e-002 -2.650000e-002
         vertex 9.046891e-002 -2.825000e-002 -2.650000e-002
         vertex 6.245699e-018 -5.100000e-002 -2.650000e-002
      endloop
   endfacet
   facet normal 0.000000e+000 0.000000e+000 -1.000000e+000
      outer loop
         vertex 6.245699e-018 -5.100000e-002 -2.650000e-002
         vertex 9.046891e-002 -2.825000e-002 -2.650000e-002
         vertex 9.175000e-002 -2.953109e-002 -2.650000e-002
      endloop
   endfacet
   facet normal 0.000000e+000 0.000000e+000 -1.000000e+000
      outer loop
         vertex 6.245699e-018 -5.100000e-002 -2.650000e-002
         vertex 9.175000e-002 -2.953109e-002 -2.650000e-002
         vertex 9.350000e-002 -3.000000e-002 -2.650000e-002
      endloop
   endfacet
   facet normal 0.000000e+000 0.000000e+000 -1.000000e+000
      outer loop
         vertex 1.707500e-001 -2.953109e-002 -2.650000e-002
         vertex 6.245699e-018 -5.100000e-002 -2.650000e-002
         vertex 1.694689e-001 -2.825000e-002 -2.650000e-002
      endloop
   endfacet
   facet normal 0.000000e+000 0.000000e+000 -1.000000e+000
      outer loop
         vertex 1.694689e-001 -2.825000e-002 -2.650000e-002
         vertex 6.245699e-018 -5.100000e-002 -2.650000e-002
         vertex 9.350000e-002 -3.000000e-002 -2.650000e-002
      endloop
   endfacet
   facet normal 0.000000e+000 0.000000e+000 -1.000000e+000
      outer loop
         vertex 1.694689e-001 -2.825000e-002 -2.650000e-002
         vertex 9.350000e-002 -3.000000e-002 -2.650000e-002
         vertex 1.690000e-001 -2.650000e-002 -2.650000e-002
      endloop
   endfacet
   facet normal 0.000000e+000 0.000000e+000 -1.000000e+000
      outer loop
         vertex 1.690000e-001 -2.650000e-002 -2.650000e-002
         vertex 9.350000e-002 -3.000000e-002 -2.650000e-002
         vertex 9.525000e-002 -2.953109e-002 -2.650000e-002
      endloop
   endfacet
   facet normal 0.000000e+000 0.000000e+000 -1.000000e+000
      outer loop
         vertex 1.690000e-001 -2.650000e-002 -2.650000e-002
         vertex 9.525000e-002 -2.953109e-002 -2.650000e-002
         vertex 9.653109e-002 -2.825000e-002 -2.650000e-002
      endloop
   endfacet
   facet normal -1.718619e-001 9.851211e-001 0.000000e+000
      outer loop
         vertex 9.350000e-002 -3.000000e-002 -2.650000e-002
         vertex 9.350000e-002 -3.000000e-002 -3.129244e-010
         vertex 9.525000e-002 -2.953109e-002 -2.650000e-002
      endloop
   endfacet
   facet normal -3.437238e-001 9.390708e-001 0.000000e+000
      outer loop
         vertex 9.525000e-002 -2.953109e-002 -2.650000e-002
         vertex 9.350000e-002 -3.000000e-002 -3.129244e-010
         vertex 9.525000e-002 -2.953109e-002 -3.129244e-010
      endloop
   endfacet
   facet normal -6.413973e-001 7.672089e-001 0.000000e+000
      outer loop
         vertex 9.525000e-002 -2.953109e-002 -2.650000e-002
         vertex 9.525000e-002 -2.953109e-002 -3.129244e-010
         vertex 9.653109e-002 -2.825000e-002 -2.650000e-002
      endloop
   endfacet
   facet normal -7.672089e-001 6.413973e-001 0.000000e+000
      outer loop
         vertex 9.653109e-002 -2.825000e-002 -2.650000e-002
         vertex 9.525000e-002 -2.953109e-002 -3.129244e-010
         vertex 9.653109e-002 -2.825000e-002 -3.129244e-010
      endloop
   endfacet
   facet normal -9.390708e-001 3.437238e-001 0.000000e+000
      outer loop
         vertex 9.653109e-002 -2.825000e-002 -2.650000e-002
         vertex 9.653109e-002 -2.825000e-002 -3.129244e-010
         vertex 9.700000e-002 -2.650000e-002 -2.650000e-002
      endloop
   endfacet
   facet normal -9.851211e-001 1.718619e-001 0.000000e+000
      outer loop
         vertex 9.700000e-002 -2.650000e-002 -2.650000e-002
         vertex 9.653109e-002 -2.825000e-002 -3.129244e-010
         vertex 9.700000e-002 -2.650000e-002 -3.129244e-010
      endloop
   endfacet
   facet normal -9.851211e-001 -1.718619e-001 0.000000e+000
      outer loop
         vertex 9.700000e-002 -2.650000e-002 -2.650000e-002
         vertex 9.700000e-002 -2.650000e-002 -3.129244e-010
         vertex 9.653109e-002 -2.475000e-002 -2.650000e-002
      endloop
   endfacet
   facet normal -9.390708e-001 -3.437238e-001 0.000000e+000
      outer loop
         vertex 9.653109e-002 -2.475000e-002 -2.650000e-002
         vertex 9.700000e-002 -2.650000e-002 -3.129244e-010
         vertex 9.653109e-002 -2.475000e-002 -3.129244e-010
      endloop
   endfacet
   facet normal -7.672089e-001 -6.413973e-001 0.000000e+000
      outer loop
         vertex 9.653109e-002 -2.475000e-002 -2.650000e-002
         vertex 9.653109e-002 -2.475000e-002 -3.129244e-010
         vertex 9.525000e-002 -2.346891e-002 -2.650000e-002
      endloop
   endfacet
   facet normal -6.413973e-001 -7.672089e-001 0.000000e+000
      outer loop
         vertex 9.525000e-002 -2.346891e-002 -2.650000e-002
         vertex 9.653109e-002 -2.475000e-002 -3.129244e-010
         vertex 9.525000e-002 -2.346891e-002 -3.129244e-010
      endloop
   endfacet
   facet normal -3.437238e-001 -9.390708e-001 0.000000e+000
      outer loop
         vertex 9.525000e-002 -2.346891e-002 -2.650000e-002
         vertex 9.525000e-002 -2.346891e-002 -3.129244e-010
         vertex 9.350000e-002 -2.300000e-002 -2.650000e-002
      endloop
   endfacet
   facet normal -1.718619e-001 -9.851211e-001 0.000000e+000
      outer loop
         vertex 9.350000e-002 -2.300000e-002 -2.650000e-002
         vertex 9.525000e-002 -2.346891e-002 -3.129244e-010
         vertex 9.350000e-002 -2.300000e-002 -3.129244e-010
      endloop
   endfacet
   facet normal 1.718619e-001 -9.851211e-001 0.000000e+000
      outer loop
         vertex 9.350000e-002 -2.300000e-002 -2.650000e-002
         vertex 9.350000e-002 -2.300000e-002 -3.129244e-010
         vertex 9.175000e-002 -2.346891e-002 -2.650000e-002
      endloop
   endfacet
   facet normal 3.437238e-001 -9.390708e-001 0.000000e+000
      outer loop
         vertex 9.175000e-002 -2.346891e-002 -2.650000e-002
         vertex 9.350000e-002 -2.300000e-002 -3.129244e-010
         vertex 9.175000e-002 -2.346891e-002 -3.129244e-010
      endloop
   endfacet
   facet normal 6.413973e-001 -7.672089e-001 0.000000e+000
      outer loop
         vertex 9.175000e-002 -2.346891e-002 -2.650000e-002
         vertex 9.175000e-002 -2.346891e-002 -3.129244e-010
         vertex 9.046891e-002 -2.475000e-002 -2.650000e-002
      endloop
   endfacet
   facet normal 7.672089e-001 -6.413973e-001 0.000000e+000
      outer loop
         vertex 9.046891e-002 -2.475000e-002 -2.650000e-002
         vertex 9.175000e-002 -2.346891e-002 -3.129244e-010
         vertex 9.046891e-002 -2.475000e-002 -3.129244e-010
      endloop
   endfacet
   facet normal 9.390708e-001 -3.437238e-001 0.000000e+000
      outer loop
         vertex 9.046891e-002 -2.475000e-002 -2.650000e-002
         vertex 9.046891e-002 -2.475000e-002 -3.129244e-010
         vertex 9.000000e-002 -2.650000e-002 -2.650000e-002
      endloop
   endfacet
   facet normal 9.851211e-001 -1.718619e-001 0.000000e+000
      outer loop
         vertex 9.000000e-002 -2.650000e-002 -2.650000e-002
         vertex 9.046891e-002 -2.475000e-002 -3.129244e-010
         vertex 9.000000e-002 -2.650000e-002 -3.129244e-010
      endloop
   endfacet
   facet normal 9.851211e-001 1.718619e-001 0.000000e+000
      outer loop
         vertex 9.000000e-002 -2.650000e-002 -2.650000e-002
         vertex 9.000000e-002 -2.650000e-002 -3.129244e-010
         vertex 9.046891e-002 -2.825000e-002 -2.650000e-002
      endloop
   endfacet
   facet normal 9.390708e-001 3.437238e-001 0.000000e+000
      outer loop
         vertex 9.046891e-002 -2.825000e-002 -2.650000e-002
         vertex 9.000000e-002 -2.650000e-002 -3.129244e-010
         vertex 9.046891e-002 -2.825000e-002 -3.129244e-010
      endloop
   endfacet
   facet normal 7.672089e-001 6.413973e-001 0.000000e+000
      outer loop
         vertex 9.046891e-002 -2.825000e-002 -2.650000e-002
         vertex 9.046891e-002 -2.825000e-002 -3.129244e-010
         vertex 9.175000e-002 -2.953109e-002 -2.650000e-002
      endloop
   endfacet
   facet normal 6.413973e-001 7.672089e-001 0.000000e+000
      outer loop
         vertex 9.175000e-002 -2.953109e-002 -2.650000e-002
         vertex 9.046891e-002 -2.825000e-002 -3.129244e-010
         vertex 9.175000e-002 -2.953109e-002 -3.129244e-010
      endloop
   endfacet
   facet normal 3.437238e-001 9.390708e-001 0.000000e+000
      outer loop
         vertex 9.175000e-002 -2.953109e-002 -2.650000e-002
         vertex 9.175000e-002 -2.953109e-002 -3.129244e-010
         vertex 9.350000e-002 -3.000000e-002 -2.650000e-002
      endloop
   endfacet
   facet normal 1.718619e-001 9.851211e-001 0.000000e+000
      outer loop
         vertex 9.350000e-002 -3.000000e-002 -2.650000e-002
         vertex 9.175000e-002 -2.953109e-002 -3.129244e-010
         vertex 9.350000e-002 -3.000000e-002 -3.129244e-010
      endloop
   endfacet
   facet normal -1.718619e-001 9.851211e-001 0.000000e+000
      outer loop
         vertex 1.725000e-001 -3.000000e-002 -2.650000e-002
         vertex 1.725000e-001 -3.000000e-002 -3.129244e-010
         vertex 1.742500e-001 -2.953109e-002 -2.650000e-002
      endloop
   endfacet
   facet normal -3.437238e-001 9.390708e-001 0.000000e+000
      outer loop
         vertex 1.742500e-001 -2.953109e-002 -2.650000e-002
         vertex 1.725000e-001 -3.000000e-002 -3.129244e-010
         vertex 1.742500e-001 -2.953109e-002 -3.129244e-010
      endloop
   endfacet
   facet normal -6.413973e-001 7.672089e-001 0.000000e+000
      outer loop
         vertex 1.742500e-001 -2.953109e-002 -2.650000e-002
         vertex 1.742500e-001 -2.953109e-002 -3.129244e-010
         vertex 1.755311e-001 -2.825000e-002 -2.650000e-002
      endloop
   endfacet
   facet normal -7.672089e-001 6.413973e-001 0.000000e+000
      outer loop
         vertex 1.755311e-001 -2.825000e-002 -2.650000e-002
         vertex 1.742500e-001 -2.953109e-002 -3.129244e-010
         vertex 1.755311e-001 -2.825000e-002 -3.129244e-010
      endloop
   endfacet
   facet normal -9.390708e-001 3.437238e-001 0.000000e+000
      outer loop
         vertex 1.755311e-001 -2.825000e-002 -2.650000e-002
         vertex 1.755311e-001 -2.825000e-002 -3.129244e-010
         vertex 1.760000e-001 -2.650000e-002 -2.650000e-002
      endloop
   endfacet
   facet normal -9.851211e-001 1.718619e-001 0.000000e+000
      outer loop
         vertex 1.760000e-001 -2.650000e-002 -2.650000e-002
         vertex 1.755311e-001 -2.825000e-002 -3.129244e-010
         vertex 1.760000e-001 -2.650000e-002 -3.129244e-010
      endloop
   endfacet
   facet normal -9.851211e-001 -1.718619e-001 0.000000e+000
      outer loop
         vertex 1.760000e-001 -2.650000e-002 -2.650000e-002
         vertex 1.760000e-001 -2.650000e-002 -3.129244e-010
         vertex 1.755311e-001 -2.475000e-002 -2.650000e-002
      endloop
   endfacet
   facet normal -9.390708e-001 -3.437238e-001 0.000000e+000
      outer loop
         vertex 1.755311e-001 -2.475000e-002 -2.650000e-002
         vertex 1.760000e-001 -2.650000e-002 -3.129244e-010
         vertex 1.755311e-001 -2.475000e-002 -3.129244e-010
      endloop
   endfacet
   facet normal -7.672089e-001 -6.413973e-001 0.000000e+000
      outer loop
         vertex 1.755311e-001 -2.475000e-002 -2.650000e-002
         vertex 1.755311e-001 -2.475000e-002 -3.129244e-010
         vertex 1.742500e-001 -2.346891e-002 -2.650000e-002
      endloop
   endfacet
   facet normal -6.413973e-001 -7.672089e-001 0.000000e+000
      outer loop
         vertex 1.742500e-001 -2.346891e-002 -2.650000e-002
         vertex 1.755311e-001 -2.475000e-002 -3.129244e-010
         vertex 1.742500e-001 -2.346891e-002 -3.129244e-010
      endloop
   endfacet
   facet normal -3.437238e-001 -9.390708e-001 0.000000e+000
      outer loop
         vertex 1.742500e-001 -2.346891e-002 -2.650000e-002
         vertex 1.742500e-001 -2.346891e-002 -3.129244e-010
         vertex 1.725000e-001 -2.300000e-002 -2.650000e-002
      endloop
   endfacet
   facet normal -1.718619e-001 -9.851211e-001 0.000000e+000
      outer loop
         vertex 1.725000e-001 -2.300000e-002 -2.650000e-002
         vertex 1.742500e-001 -2.346891e-002 -3.129244e-010
         vertex 1.725000e-001 -2.300000e-002 -3.129244e-010
      endloop
   endfacet
   facet normal 1.718619e-001 -9.851211e-001 0.000000e+000
      outer loop
         vertex 1.725000e-001 -2.300000e-002 -2.650000e-002
         vertex 1.725000e-001 -2.300000e-002 -3.129244e-010
         vertex 1.707500e-001 -2.346891e-002 -2.650000e-002
      endloop
   endfacet
   facet normal 3.437238e-001 -9.390708e-001 0.000000e+000
      outer loop
         vertex 1.707500e-001 -2.346891e-002 -2.650000e-002
         vertex 1.725000e-001 -2.300000e-002 -3.129244e-010
         vertex 1.707500e-001 -2.346891e-002 -3.129244e-010
      endloop
   endfacet
   facet normal 6.413973e-001 -7.672089e-001 0.000000e+000
      outer loop
         vertex 1.707500e-001 -2.346891e-002 -2.650000e-002
         vertex 1.707500e-001 -2.346891e-002 -3.129244e-010
         vertex 1.694689e-001 -2.475000e-002 -2.650000e-002
      endloop
   endfacet
   facet normal 7.672089e-001 -6.413973e-001 0.000000e+000
      outer loop
         vertex 1.694689e-001 -2.475000e-002 -2.650000e-002
         vertex 1.707500e-001 -2.346891e-002 -3.129244e-010
         vertex 1.694689e-001 -2.475000e-002 -3.129244e-010
      endloop
   endfacet
   facet normal 9.390708e-001 -3.437238e-001 0.000000e+000
      outer loop
         vertex 1.694689e-001 -2.475000e-002 -2.650000e-002
         vertex 1.694689e-001 -2.475000e-002 -3.129244e-010
         vertex 1.690000e-001 -2.650000e-002 -2.650000e-002
      endloop
   endfacet
   facet normal 9.851211e-001 -1.718619e-001 0.000000e+000
      outer loop
         vertex 1.690000e-001 -2.650000e-002 -2.650000e-002
         vertex 1.694689e-001 -2.475000e-002 -3.129244e-010
         vertex 1.690000e-001 -2.650000e-002 -3.129244e-010
      endloop
   endfacet
   facet normal 9.851211e-001 1.718619e-001 0.000000e+000
      outer loop
         vertex 1.690000e-001 -2.650000e-002 -2.650000e-002
         vertex 1.690000e-001 -2.650000e-002 -3.129244e-010
         vertex 1.694689e-001 -2.825000e-002 -2.650000e-002
      endloop
   endfacet
   facet normal 9.390708e-001 3.437238e-001 0.000000e+000
      outer loop
         vertex 1.694689e-001 -2.825000e-002 -2.650000e-002
         vertex 1.690000e-001 -2.650000e-002 -3.129244e-010
         vertex 1.694689e-001 -2.825000e-002 -3.129244e-010
      endloop
   endfacet
   facet normal 7.672089e-001 6.413973e-001 0.000000e+000
      outer loop
         vertex 1.694689e-001 -2.825000e-002 -2.650000e-002
         vertex 1.694689e-001 -2.825000e-002 -3.129244e-010
         vertex 1.707500e-001 -2.953109e-002 -2.650000e-002
      endloop
   endfacet
   facet normal 6.413973e-001 7.672089e-001 0.000000e+000
      outer loop
         vertex 1.707500e-001 -2.953109e-002 -2.650000e-002
         vertex 1.694689e-001 -2.825000e-002 -3.129244e-010
         vertex 1.707500e-001 -2.953109e-002 -3.129244e-010
      endloop
   endfacet
   facet normal 3.437238e-001 9.390708e-001 0.000000e+000
      outer loop
         vertex 1.707500e-001 -2.953109e-002 -2.650000e-002
         vertex 1.707500e-001 -2.953109e-002 -3.129244e-010
         vertex 1.725000e-001 -3.000000e-002 -2.650000e-002
      endloop
   endfacet
   facet normal 1.718619e-001 9.851211e-001 0.000000e+000
      outer loop
         vertex 1.725000e-001 -3.000000e-002 -2.650000e-002
         vertex 1.707500e-001 -2.953109e-002 -3.129244e-010
         vertex 1.725000e-001 -3.000000e-002 -3.129244e-010
      endloop
   endfacet
endsolid